<?xml version="1.0" standalone="no"?>
<!DOCTYPE svg PUBLIC "-//W3C//DTD SVG 1.1//EN" "http://www.w3.org/Graphics/SVG/1.1/DTD/svg11.dtd" >
<svg xmlns="http://www.w3.org/2000/svg">
<metadata></metadata>
<defs>
<font id="accentnormal" horiz-adv-x="1064" >
<font-face units-per-em="2048" ascent="1536" descent="-512" />
<missing-glyph horiz-adv-x="1024" />
<glyph horiz-adv-x="2048" />
<glyph horiz-adv-x="2048" />
<glyph unicode="&#xd;" horiz-adv-x="2048" />
<glyph unicode=" "  horiz-adv-x="1024" />
<glyph unicode="&#x09;" horiz-adv-x="1024" />
<glyph unicode="&#xa0;" horiz-adv-x="1024" />
<glyph unicode="A" horiz-adv-x="921" d="M43 2h6l580 1026q6 12 16 22.5t22.5 17.5t28 11t29.5 4h9t12.5 -1t12.5 -2t9 -1q18 -4 32.5 -14t26 -24.5t17.5 -32t6 -35.5v-971h8v1450z" />
<glyph unicode="B" d="M51 1253q0 -178 1 -524t1 -524v-201h617q70 2 132 29.5t110.5 76t75 112t26.5 132.5v29q0 45 -11.5 89t-33 82t-52 69.5t-69.5 56.5l-2 2q-6 6 -10.5 11t-7.5 11.5t-5 12.5t-2 12q0 8 4 16.5t8.5 14.5t7.5 9l9 9q39 25 68.5 57.5t51 70.5t33 80t11.5 87v33 q0 70 -26.5 133.5t-75 111.5t-112 75.5t-132.5 27.5h-617v-201zM59 293v149q0 57 21.5 108.5t60.5 91.5t90.5 61.5t108.5 21.5h332l2 -2q68 -2 128 -28.5t106 -74t72 -108.5t26 -129v-29q0 -70 -27 -131t-74 -108t-108.5 -74t-130.5 -27h-326q-57 0 -108.5 21.5t-90.5 60.5 t-60.5 89.5t-21.5 107.5zM59 1012v155q0 57 21.5 107.5t60.5 89.5t90.5 60.5t108.5 21.5h330q68 0 129 -27.5t108 -75t73 -108.5t26 -129v-33q0 -33 -7.5 -65.5t-19.5 -63.5t-30.5 -57.5t-43.5 -50.5q-25 -25 -51.5 -43.5t-57 -31.5t-62.5 -20.5t-64 -7.5h-330 q-57 0 -108.5 21.5t-90.5 60.5t-60.5 89t-21.5 108z" />
<glyph unicode="C" horiz-adv-x="1474" d="M41 719q0 -147 56.5 -279.5t155.5 -231.5t231 -155.5t280 -56.5q109 0 211 30.5t190 90t157 141.5t110 182l-9 2q-41 -98 -108.5 -179t-154.5 -139t-188.5 -89t-207.5 -31q-70 0 -134.5 13.5t-121.5 40t-106.5 66.5t-90.5 91q-37 47 -66.5 104.5t-49 121t-29.5 134 t-10 144.5t10 144.5t29.5 135t49 122t66.5 104.5q41 51 90.5 91t106.5 66.5t121.5 40t134.5 13.5q106 0 205.5 -31t186.5 -87t154.5 -136t108.5 -178l8 4q-43 98 -110.5 179t-155.5 138t-189.5 88t-207.5 31q-147 0 -279.5 -56.5t-231.5 -157t-155.5 -232.5t-56.5 -279z" />
<glyph unicode="D" horiz-adv-x="839" d="M63 0h7q147 0 279 55.5t232.5 155.5t157 231t58.5 279v10q-2 147 -58.5 278.5t-157 230.5t-232.5 154.5t-279 55.5h-7v-1450zM72 451v550q0 45 14 89.5t41 81t62.5 65.5t78.5 45q12 6 25.5 9t28 6t27.5 4.5t28 1.5q33 0 63.5 -6.5t60 -19.5t56.5 -30.5t47 -42.5 q45 -49 79 -104.5t57.5 -115.5t35.5 -124.5t12 -130.5v-2v-3v-2v-1q0 -66 -12 -129.5t-35.5 -123.5t-57.5 -116.5t-79 -103.5q-20 -25 -47 -43.5t-56.5 -30.5t-60 -19.5t-63.5 -7.5q-14 0 -27.5 1.5t-27 4.5t-26.5 7t-28 8q-43 16 -78.5 45t-62.5 66.5t-41 80.5t-14 91z" />
<glyph unicode="E" horiz-adv-x="1597" d="M63 715q0 -127 41 -243t116 -212t178.5 -162.5t226.5 -97.5v8q-53 12 -104.5 33.5t-97.5 50.5t-88 63.5t-79 77.5q-45 61 -64 107q-18 48 -21 106v11q0 53 24 106q18 43 51 72t67.5 44t65.5 21.5t51 8.5h1104v6q0 45 -5 88t-14.5 80t-17.5 64.5t-16 45.5 q-43 102 -113 187.5t-159 145.5t-193.5 92t-216.5 32q-150 0 -284 -57.5t-235.5 -158.5t-159 -235.5t-57.5 -283.5zM186 1065q14 45 34 78t38 57q51 57 112.5 103.5t131 77t144.5 47t153 16.5q82 0 159.5 -17.5t149.5 -51.5t135.5 -83t114.5 -112q20 -27 38 -62t28 -76 q8 -31 7 -64q-1 -11 -1 -22q-4 -45 -21 -88q-20 -47 -54 -77.5t-70 -46t-63.5 -20.5t-47.5 -7h-728q-23 2 -52 7t-68 20.5t-76 46t-57 77.5q-22 49 -22 97q-1 52 15 100z" />
<glyph unicode="F" horiz-adv-x="716" d="M57 1444l2 -1444l9 -6v426q0 57 22.5 109.5t62.5 92.5t92 62.5t109 22.5h70v10h-70q-57 0 -109 22.5t-92 62.5t-62.5 92t-22.5 112v137q0 57 22.5 110.5t62.5 94.5t92 64.5t109 23.5h328v8h-625z" />
<glyph unicode="G" horiz-adv-x="1556" d="M57 715q0 -147 56.5 -279.5t157 -232t232.5 -155.5t279 -56q109 0 211.5 30.5t190.5 90t155.5 141.5t110.5 182q18 49 27.5 86t16.5 85t7 98v6h-706v-13h340q18 0 47.5 -5t67.5 -19.5t72 -44t54 -76.5q16 -37 20 -76q2 -17 2 -33q0 -22 -3 -42q-6 -37 -17.5 -68 t-27.5 -55q-49 -63 -112.5 -115.5t-137.5 -88.5t-154 -55.5t-164 -19.5q-70 0 -134 13.5t-121.5 40t-106.5 66.5t-90 91q-37 47 -67 104.5t-49 121t-29.5 134t-10.5 144.5t10.5 144.5t29.5 135t49 122t67 104.5q41 51 90 91t106.5 66.5t122 40t133.5 13.5q106 0 205.5 -31 t187 -87.5t155 -136t108.5 -178.5l8 5q-43 98 -110.5 179t-155.5 138t-189.5 88t-208.5 31q-147 0 -279 -56.5t-232.5 -157t-157 -232.5t-56.5 -279z" />
<glyph unicode="H" horiz-adv-x="1290" d="M82 2h10v420q0 59 22.5 111.5t62.5 92.5t92.5 62.5t109.5 22.5h553q57 0 109.5 -22.5t92.5 -62.5t62.5 -92.5t22.5 -111.5v-418h8v1448h-8v-442q0 -59 -22.5 -111.5t-62.5 -92.5t-92.5 -62.5t-109.5 -22.5h-553q-57 0 -109.5 22.5t-92.5 62.5t-62.5 92t-22.5 112v442h-10 v-1450z" />
<glyph unicode="I" horiz-adv-x="143" d="M57 2h9v1448h-9v-1448z" />
<glyph unicode="J" horiz-adv-x="778" d="M51 309q0 -63 25.5 -119.5t68.5 -99.5t100.5 -66.5t121.5 -23.5q63 0 120.5 23.5t101.5 66.5t68.5 99.5t26.5 119.5v1137q-2 0 -3 1t-2 1h-3h-623v-8h328q57 0 111.5 -23.5t95.5 -64.5t64.5 -94.5t23.5 -112.5v-832q0 -61 -24.5 -117.5t-68.5 -99.5t-100.5 -66.5 t-117.5 -23.5q-59 0 -115.5 24.5t-98.5 67.5t-67 97.5t-25 113.5h-8z" />
<glyph unicode="K" horiz-adv-x="880" d="M72 2h10v481q0 16 4 31.5t13.5 28t21.5 22.5t26 17q4 2 9.5 4t10.5 3t10 1h11q10 0 20.5 -2t21 -5t18.5 -8.5t16 -11.5l561 -561l4 4l-661 666q-8 6 -13 14t-9.5 17.5t-7.5 18.5t-3 19t2 20.5t6 20t9.5 17.5t13.5 14l629 631l-4 6l-527 -524q-8 -8 -16 -13.5t-18.5 -9.5 t-20.5 -6t-21 -2h-11t-10 1t-10 3l-10 4q-14 6 -26 16.5t-21.5 23.5t-13.5 28.5t-4 32.5v446h-10v-1448z" />
<glyph unicode="L" horiz-adv-x="737" d="M57 2h81h117h206.5h218.5v6h-328q-57 0 -110.5 23.5t-93 64.5t-62.5 95.5t-23 111.5v1147h-6v-1448z" />
<glyph unicode="M" horiz-adv-x="1720" d="M39 2l1 1t4 1h4h1l578 1024q8 12 19 22.5t25.5 17.5t30 11t29.5 4h7t7.5 -1t7.5 -2t7 -1q18 -6 34.5 -16t29 -24.5t19.5 -32t7 -35.5v-967l565 1022q6 12 16.5 23.5t23.5 18.5t27.5 11t28.5 4h8.5t11.5 -1t11 -2t8 -1q18 -6 33.5 -16t27 -24.5t17.5 -32t6 -35.5v-967h6 v1448l-563 -1020q-8 -12 -18 -22.5t-22.5 -17.5t-28 -11t-29.5 -4h-9h-10.5t-10.5 1t-9 1q-18 6 -32.5 16.5t-26 24.5t-17.5 31.5t-6 35.5v965z" />
<glyph unicode="N" horiz-adv-x="942" d="M74 4h3h2h3v967q0 18 6 35.5t17.5 32t25.5 24.5t33 16q4 0 9 1t10 1h10.5h11.5q14 0 28.5 -4t26.5 -11t22.5 -17.5t18.5 -22.5l565 -1022v1448h-8v-965q0 -18 -6 -35.5t-17.5 -31.5t-26.5 -24.5t-34 -16.5q-2 0 -7 -1t-11 -1h-10.5h-10.5q-14 0 -28.5 4t-26.5 11 t-22.5 17.5t-18.5 22.5l-565 1020v-1448z" />
<glyph unicode="O" horiz-adv-x="1599" d="M76 725q0 -147 56 -279.5t155.5 -231.5t232.5 -155.5t281 -56.5q147 0 279 56.5t231.5 155.5t156 231.5t56.5 279.5t-56.5 280.5t-156 232.5t-231.5 155.5t-279 56.5t-280.5 -56.5t-233 -155.5t-155.5 -232.5t-56 -280.5zM84 725q0 145 55.5 276.5t154.5 230.5t230 154.5 t277 55.5q145 0 275 -55.5t229.5 -154.5t155 -230.5t55.5 -276.5t-55.5 -275.5t-155 -229.5t-229.5 -154.5t-275 -55.5t-276.5 55.5t-230.5 154.5t-154.5 229.5t-55.5 275.5z" />
<glyph unicode="P" d="M51 2h8v469q0 57 21.5 107.5t60.5 89.5t89.5 60.5t107.5 21.5h334q70 2 132 29.5t109.5 75.5t74 111.5t26.5 133.5t-26.5 133t-74 111.5t-111 76t-132.5 29.5h-619v-1448zM59 1036v125q0 57 21.5 108.5t60.5 90.5t89.5 60.5t107.5 21.5h334q68 -2 128 -29t106 -75 t72 -109.5t26 -128.5q0 -68 -26 -129.5t-72 -109.5t-106.5 -74.5t-127.5 -28.5h-334q-57 0 -107.5 21.5t-89.5 60.5t-60.5 89t-21.5 107z" />
<glyph unicode="Q" horiz-adv-x="1556" d="M55 725q0 -145 55.5 -277.5t155 -232.5t231.5 -156.5t277 -56.5h647v8h-145q-16 0 -29.5 4t-25 12.5t-18.5 17.5t-9 22q-4 14 -1 28.5t10 26.5t15.5 21.5t20.5 23.5q61 49 109.5 111.5t83 134t53 150.5t18.5 163q0 147 -56 280.5t-155.5 232.5t-231.5 155.5t-280 56.5 q-147 0 -279 -56.5t-232.5 -155.5t-157 -232.5t-56.5 -280.5zM63 725q0 145 55.5 276.5t155 230.5t230.5 154.5t276 55.5t275.5 -55.5t229.5 -154.5t154.5 -230.5t55.5 -276.5t-55.5 -275.5t-154.5 -229.5t-229 -154.5t-276 -55.5q-145 0 -276 55.5t-230.5 154.5t-155 229.5 t-55.5 275.5z" />
<glyph unicode="R" horiz-adv-x="1105" d="M51 4h10v469q0 57 21.5 107.5t60.5 89.5t89.5 60.5t107.5 21.5h45q6 0 13.5 -1t16.5 -3.5t17 -4.5t17 -6q8 -4 16 -9t15 -11t5 -4t19 -19l502 -692l8 6l-500 684q-2 2 -3 6t-2 9.5t-1 10.5t2 11t6 11t8 7.5t9.5 3.5t9.5 1h131q70 2 132 29.5t109.5 75.5t74 111.5 t26.5 133.5t-26.5 133t-75 112.5t-112 77t-132.5 27.5h-619v-1448zM61 1040v125q0 57 21.5 107.5t60.5 89.5t89.5 60.5t107.5 21.5h334q68 -2 128 -28.5t106 -75t72 -110t26 -128.5q0 -68 -26 -129.5t-72 -108.5t-107.5 -74.5t-128.5 -27.5l-6 -2h-326q-57 0 -107.5 21.5 t-89.5 60.5t-60.5 90t-21.5 108z" />
<glyph unicode="S" horiz-adv-x="1003" d="M41 2v-6q49 0 96 14.5t87 42t70 65.5t48 85l303 862l10 27v2q12 27 31 54.5t52.5 57t86 51t119.5 25.5v162q-45 -6 -84 -23.5t-69.5 -44t-53 -61.5t-39.5 -76l-364 -1030q-16 -45 -46 -83t-69 -65.5t-84 -43t-94 -15.5z" />
<glyph unicode="T" horiz-adv-x="1351" d="M57 1446h328q57 0 109.5 -23.5t92.5 -64.5t63.5 -94.5t23.5 -110.5v-1151h6v1151q0 57 22.5 110.5t62.5 94.5t92 64.5t110 23.5h327v6h-1237v-6z" />
<glyph unicode="U" horiz-adv-x="860" d="M66 365q0 -74 28.5 -140.5t78.5 -117t116.5 -79t140.5 -28.5t140.5 28.5t116.5 79t79 117t29 140.5v1083h-9v-1083q0 -72 -27.5 -137.5t-76.5 -115t-114.5 -77t-137.5 -27.5t-137.5 27.5t-114.5 77t-76.5 115t-27.5 137.5v1083h-8v-1083z" />
<glyph unicode="V" horiz-adv-x="1226" d="M63 1452l551 -1450l549 1448l-6 2l-416 -1090q-8 -16 -21 -31.5t-30.5 -25.5t-37 -15t-38.5 -5q-20 0 -39.5 5t-37 16t-30.5 25.5t-20 33.5l-415 1087h-9z" />
<glyph unicode="W" horiz-adv-x="1699" d="M59 2l80 144q80 145 185.5 335.5t300.5 540.5q6 12 16 23.5t23.5 18.5t28 11t28.5 4h7t11 -1t11.5 -2t9.5 -1q18 -4 33.5 -14t25.5 -24.5t16.5 -32t6.5 -35.5v-965l116 203q115 203 268.5 475t434.5 770h-10l-578 -1024q-8 -12 -19.5 -22.5t-25.5 -17.5t-29.5 -11 t-29.5 -4h-7.5t-6.5 1t-15 3q-18 4 -34.5 14t-29 24.5t-19.5 32t-7 35.5v969l-563 -1022q-8 -12 -18.5 -23.5t-24 -18.5t-27.5 -11t-29 -4h-8t-11 1t-11 2t-8 1q-18 4 -34 14t-26 24.5t-16 32t-6 35.5v969h-9v-1450z" />
<glyph unicode="X" horiz-adv-x="821" d="M59 2l9 -2l221 565q6 18 18 33.5t28.5 26t35 16.5t39.5 6q20 0 38.5 -6t34 -16.5t27.5 -25.5t20 -34l222 -565l10 2l-238 602q-14 49 -20 94q-5 39 -5 73v11q1 39 5 72t12 59l207 533l-8 2l-185 -471q-8 -18 -20 -33.5t-27.5 -27t-34 -17.5t-38.5 -6t-39 6t-35.5 17.5 t-28.5 26.5t-18 34l-185 471l-8 -4l176 -455l2 -2v-2l19 -45q10 -29 16 -65.5t7 -84.5v-11q0 -44 -7 -94q-8 -56 -28 -116z" />
<glyph unicode="Y" horiz-adv-x="776" d="M72 1444l290 -746q2 -8 5.5 -18t6.5 -22.5t5 -27t2 -28.5v-602l10 -2v604q0 14 3 28.5t5 26t6.5 24.5t4.5 17l295 748l-11 2l-186 -475q-8 -18 -20.5 -33.5t-28 -27t-33.5 -16.5t-39 -5q-20 0 -39.5 5t-35 16.5t-28 26.5t-18.5 34l-186 475z" />
<glyph unicode="Z" horiz-adv-x="901" d="M82 0h676v10h-406q-20 0 -39.5 5t-37 14.5t-32 24t-24.5 30.5q-10 18 -17 35.5t-9.5 35t2 36t12.5 36.5l612 1223h-676v-10h408q20 0 38.5 -5t36 -14.5t32 -23t24.5 -31.5q10 -16 17.5 -34.5t9.5 -36t-2.5 -36t-12.5 -34.5z" />
<glyph unicode="a" horiz-adv-x="921" d="M43 2h6l580 1026q6 12 16 22.5t22.5 17.5t28 11t29.5 4h9t12.5 -1t12.5 -2t9 -1q18 -4 32.5 -14t26 -24.5t17.5 -32t6 -35.5v-971h8v1450z" />
<glyph unicode="b" d="M51 1253q0 -178 1 -524t1 -524v-201h617q70 2 132 29.5t110.5 76t75 112t26.5 132.5v29q0 45 -11.5 89t-33 82t-52 69.5t-69.5 56.5l-2 2q-6 6 -10.5 11t-7.5 11.5t-5 12.5t-2 12q0 8 4 16.5t8.5 14.5t7.5 9l9 9q39 25 68.5 57.5t51 70.5t33 80t11.5 87v33 q0 70 -26.5 133.5t-75 111.5t-112 75.5t-132.5 27.5h-617v-201zM59 293v149q0 57 21.5 108.5t60.5 91.5t90.5 61.5t108.5 21.5h332l2 -2q68 -2 128 -28.5t106 -74t72 -108.5t26 -129v-29q0 -70 -27 -131t-74 -108t-108.5 -74t-130.5 -27h-326q-57 0 -108.5 21.5t-90.5 60.5 t-60.5 89.5t-21.5 107.5zM59 1012v155q0 57 21.5 107.5t60.5 89.5t90.5 60.5t108.5 21.5h330q68 0 129 -27.5t108 -75t73 -108.5t26 -129v-33q0 -33 -7.5 -65.5t-19.5 -63.5t-30.5 -57.5t-43.5 -50.5q-25 -25 -51.5 -43.5t-57 -31.5t-62.5 -20.5t-64 -7.5h-330 q-57 0 -108.5 21.5t-90.5 60.5t-60.5 89t-21.5 108z" />
<glyph unicode="c" horiz-adv-x="1474" d="M41 719q0 -147 56.5 -279.5t155.5 -231.5t231 -155.5t280 -56.5q109 0 211 30.5t190 90t157 141.5t110 182l-9 2q-41 -98 -108.5 -179t-154.5 -139t-188.5 -89t-207.5 -31q-70 0 -134.5 13.5t-121.5 40t-106.5 66.5t-90.5 91q-37 47 -66.5 104.5t-49 121t-29.5 134 t-10 144.5t10 144.5t29.5 135t49 122t66.5 104.5q41 51 90.5 91t106.5 66.5t121.5 40t134.5 13.5q106 0 205.5 -31t186.5 -87t154.5 -136t108.5 -178l8 4q-43 98 -110.5 179t-155.5 138t-189.5 88t-207.5 31q-147 0 -279.5 -56.5t-231.5 -157t-155.5 -232.5t-56.5 -279z" />
<glyph unicode="d" horiz-adv-x="839" d="M63 0h7q147 0 279 55.5t232.5 155.5t157 231t58.5 279v10q-2 147 -58.5 278.5t-157 230.5t-232.5 154.5t-279 55.5h-7v-1450zM72 451v550q0 45 14 89.5t41 81t62.5 65.5t78.5 45q12 6 25.5 9t28 6t27.5 4.5t28 1.5q33 0 63.5 -6.5t60 -19.5t56.5 -30.5t47 -42.5 q45 -49 79 -104.5t57.5 -115.5t35.5 -124.5t12 -130.5v-2v-3v-2v-1q0 -66 -12 -129.5t-35.5 -123.5t-57.5 -116.5t-79 -103.5q-20 -25 -47 -43.5t-56.5 -30.5t-60 -19.5t-63.5 -7.5q-14 0 -27.5 1.5t-27 4.5t-26.5 7t-28 8q-43 16 -78.5 45t-62.5 66.5t-41 80.5t-14 91z" />
<glyph unicode="e" horiz-adv-x="1597" d="M63 715q0 -127 41 -243t116 -212t178.5 -162.5t226.5 -97.5v8q-53 12 -104.5 33.5t-97.5 50.5t-88 63.5t-79 77.5q-45 61 -64 107q-18 48 -21 106v11q0 53 24 106q18 43 51 72t67.5 44t65.5 21.5t51 8.5h1104v6q0 45 -5 88t-14.5 80t-17.5 64.5t-16 45.5 q-43 102 -113 187.5t-159 145.5t-193.5 92t-216.5 32q-150 0 -284 -57.5t-235.5 -158.5t-159 -235.5t-57.5 -283.5zM186 1065q14 45 34 78t38 57q51 57 112.5 103.5t131 77t144.5 47t153 16.5q82 0 159.5 -17.5t149.5 -51.5t135.5 -83t114.5 -112q20 -27 38 -62t28 -76 q8 -31 7 -64q-1 -11 -1 -22q-4 -45 -21 -88q-20 -47 -54 -77.5t-70 -46t-63.5 -20.5t-47.5 -7h-728q-23 2 -52 7t-68 20.5t-76 46t-57 77.5q-22 49 -22 97q-1 52 15 100z" />
<glyph unicode="f" horiz-adv-x="716" d="M57 1444l2 -1444l9 -6v426q0 57 22.5 109.5t62.5 92.5t92 62.5t109 22.5h70v10h-70q-57 0 -109 22.5t-92 62.5t-62.5 92t-22.5 112v137q0 57 22.5 110.5t62.5 94.5t92 64.5t109 23.5h328v8h-625z" />
<glyph unicode="g" horiz-adv-x="1556" d="M57 715q0 -147 56.5 -279.5t157 -232t232.5 -155.5t279 -56q109 0 211.5 30.5t190.5 90t155.5 141.5t110.5 182q18 49 27.5 86t16.5 85t7 98v6h-706v-13h340q18 0 47.5 -5t67.5 -19.5t72 -44t54 -76.5q16 -37 20 -76q2 -17 2 -33q0 -22 -3 -42q-6 -37 -17.5 -68 t-27.5 -55q-49 -63 -112.5 -115.5t-137.5 -88.5t-154 -55.5t-164 -19.5q-70 0 -134 13.5t-121.5 40t-106.5 66.5t-90 91q-37 47 -67 104.5t-49 121t-29.5 134t-10.5 144.5t10.5 144.5t29.5 135t49 122t67 104.5q41 51 90 91t106.5 66.5t122 40t133.5 13.5q106 0 205.5 -31 t187 -87.5t155 -136t108.5 -178.5l8 5q-43 98 -110.5 179t-155.5 138t-189.5 88t-208.5 31q-147 0 -279 -56.5t-232.5 -157t-157 -232.5t-56.5 -279z" />
<glyph unicode="h" horiz-adv-x="1290" d="M82 2h10v420q0 59 22.5 111.5t62.5 92.5t92.5 62.5t109.5 22.5h553q57 0 109.5 -22.5t92.5 -62.5t62.5 -92.5t22.5 -111.5v-418h8v1448h-8v-442q0 -59 -22.5 -111.5t-62.5 -92.5t-92.5 -62.5t-109.5 -22.5h-553q-57 0 -109.5 22.5t-92.5 62.5t-62.5 92t-22.5 112v442h-10 v-1450z" />
<glyph unicode="i" horiz-adv-x="143" d="M57 2h9v1448h-9v-1448z" />
<glyph unicode="j" horiz-adv-x="778" d="M51 309q0 -63 25.5 -119.5t68.5 -99.5t100.5 -66.5t121.5 -23.5q63 0 120.5 23.5t101.5 66.5t68.5 99.5t26.5 119.5v1137q-2 0 -3 1t-2 1h-3h-623v-8h328q57 0 111.5 -23.5t95.5 -64.5t64.5 -94.5t23.5 -112.5v-832q0 -61 -24.5 -117.5t-68.5 -99.5t-100.5 -66.5 t-117.5 -23.5q-59 0 -115.5 24.5t-98.5 67.5t-67 97.5t-25 113.5h-8z" />
<glyph unicode="k" horiz-adv-x="880" d="M72 2h10v481q0 16 4 31.5t13.5 28t21.5 22.5t26 17q4 2 9.5 4t10.5 3t10 1h11q10 0 20.5 -2t21 -5t18.5 -8.5t16 -11.5l561 -561l4 4l-661 666q-8 6 -13 14t-9.5 17.5t-7.5 18.5t-3 19t2 20.5t6 20t9.5 17.5t13.5 14l629 631l-4 6l-527 -524q-8 -8 -16 -13.5t-18.5 -9.5 t-20.5 -6t-21 -2h-11t-10 1t-10 3l-10 4q-14 6 -26 16.5t-21.5 23.5t-13.5 28.5t-4 32.5v446h-10v-1448z" />
<glyph unicode="l" horiz-adv-x="737" d="M57 2h81h117h206.5h218.5v6h-328q-57 0 -110.5 23.5t-93 64.5t-62.5 95.5t-23 111.5v1147h-6v-1448z" />
<glyph unicode="m" horiz-adv-x="1720" d="M39 2l1 1t4 1h4h1l578 1024q8 12 19 22.5t25.5 17.5t30 11t29.5 4h7t7.5 -1t7.5 -2t7 -1q18 -6 34.5 -16t29 -24.5t19.5 -32t7 -35.5v-967l565 1022q6 12 16.5 23.5t23.5 18.5t27.5 11t28.5 4h8.5t11.5 -1t11 -2t8 -1q18 -6 33.5 -16t27 -24.5t17.5 -32t6 -35.5v-967h6 v1448l-563 -1020q-8 -12 -18 -22.5t-22.5 -17.5t-28 -11t-29.5 -4h-9h-10.5t-10.5 1t-9 1q-18 6 -32.5 16.5t-26 24.5t-17.5 31.5t-6 35.5v965z" />
<glyph unicode="n" horiz-adv-x="942" d="M74 4h3h2h3v967q0 18 6 35.5t17.5 32t25.5 24.5t33 16q4 0 9 1t10 1h10.5h11.5q14 0 28.5 -4t26.5 -11t22.5 -17.5t18.5 -22.5l565 -1022v1448h-8v-965q0 -18 -6 -35.5t-17.5 -31.5t-26.5 -24.5t-34 -16.5q-2 0 -7 -1t-11 -1h-10.5h-10.5q-14 0 -28.5 4t-26.5 11 t-22.5 17.5t-18.5 22.5l-565 1020v-1448z" />
<glyph unicode="o" horiz-adv-x="1599" d="M76 725q0 -147 56 -279.5t155.5 -231.5t232.5 -155.5t281 -56.5q147 0 279 56.5t231.5 155.5t156 231.5t56.5 279.5t-56.5 280.5t-156 232.5t-231.5 155.5t-279 56.5t-280.5 -56.5t-233 -155.5t-155.5 -232.5t-56 -280.5zM84 725q0 145 55.5 276.5t154.5 230.5t230 154.5 t277 55.5q145 0 275 -55.5t229.5 -154.5t155 -230.5t55.5 -276.5t-55.5 -275.5t-155 -229.5t-229.5 -154.5t-275 -55.5t-276.5 55.5t-230.5 154.5t-154.5 229.5t-55.5 275.5z" />
<glyph unicode="p" d="M51 2h8v469q0 57 21.5 107.5t60.5 89.5t89.5 60.5t107.5 21.5h334q70 2 132 29.5t109.5 75.5t74 111.5t26.5 133.5t-26.5 133t-74 111.5t-111 76t-132.5 29.5h-619v-1448zM59 1036v125q0 57 21.5 108.5t60.5 90.5t89.5 60.5t107.5 21.5h334q68 -2 128 -29t106 -75 t72 -109.5t26 -128.5q0 -68 -26 -129.5t-72 -109.5t-106.5 -74.5t-127.5 -28.5h-334q-57 0 -107.5 21.5t-89.5 60.5t-60.5 89t-21.5 107z" />
<glyph unicode="q" horiz-adv-x="1556" d="M55 725q0 -145 55.5 -277.5t155 -232.5t231.5 -156.5t277 -56.5h647v8h-145q-16 0 -29.5 4t-25 12.5t-18.5 17.5t-9 22q-4 14 -1 28.5t10 26.5t15.5 21.5t20.5 23.5q61 49 109.5 111.5t83 134t53 150.5t18.5 163q0 147 -56 280.5t-155.5 232.5t-231.5 155.5t-280 56.5 q-147 0 -279 -56.5t-232.5 -155.5t-157 -232.5t-56.5 -280.5zM63 725q0 145 55.5 276.5t155 230.5t230.5 154.5t276 55.5t275.5 -55.5t229.5 -154.5t154.5 -230.5t55.5 -276.5t-55.5 -275.5t-154.5 -229.5t-229 -154.5t-276 -55.5q-145 0 -276 55.5t-230.5 154.5t-155 229.5 t-55.5 275.5z" />
<glyph unicode="r" horiz-adv-x="1105" d="M51 4h10v469q0 57 21.5 107.5t60.5 89.5t89.5 60.5t107.5 21.5h45q6 0 13.5 -1t16.5 -3.5t17 -4.5t17 -6q8 -4 16 -9t15 -11t5 -4t19 -19l502 -692l8 6l-500 684q-2 2 -3 6t-2 9.5t-1 10.5t2 11t6 11t8 7.5t9.5 3.5t9.5 1h131q70 2 132 29.5t109.5 75.5t74 111.5 t26.5 133.5t-26.5 133t-75 112.5t-112 77t-132.5 27.5h-619v-1448zM61 1040v125q0 57 21.5 107.5t60.5 89.5t89.5 60.5t107.5 21.5h334q68 -2 128 -28.5t106 -75t72 -110t26 -128.5q0 -68 -26 -129.5t-72 -108.5t-107.5 -74.5t-128.5 -27.5l-6 -2h-326q-57 0 -107.5 21.5 t-89.5 60.5t-60.5 90t-21.5 108z" />
<glyph unicode="s" horiz-adv-x="1003" d="M41 2v-6q49 0 96 14.5t87 42t70 65.5t48 85l303 862l10 27v2q12 27 31 54.5t52.5 57t86 51t119.5 25.5v162q-45 -6 -84 -23.5t-69.5 -44t-53 -61.5t-39.5 -76l-364 -1030q-16 -45 -46 -83t-69 -65.5t-84 -43t-94 -15.5z" />
<glyph unicode="t" horiz-adv-x="1351" d="M57 1446h328q57 0 109.5 -23.5t92.5 -64.5t63.5 -94.5t23.5 -110.5v-1151h6v1151q0 57 22.5 110.5t62.5 94.5t92 64.5t110 23.5h327v6h-1237v-6z" />
<glyph unicode="u" horiz-adv-x="860" d="M66 365q0 -74 28.5 -140.5t78.5 -117t116.5 -79t140.5 -28.5t140.5 28.5t116.5 79t79 117t29 140.5v1083h-9v-1083q0 -72 -27.5 -137.5t-76.5 -115t-114.5 -77t-137.5 -27.5t-137.5 27.5t-114.5 77t-76.5 115t-27.5 137.5v1083h-8v-1083z" />
<glyph unicode="v" horiz-adv-x="1226" d="M63 1452l551 -1450l549 1448l-6 2l-416 -1090q-8 -16 -21 -31.5t-30.5 -25.5t-37 -15t-38.5 -5q-20 0 -39.5 5t-37 16t-30.5 25.5t-20 33.5l-415 1087h-9z" />
<glyph unicode="w" horiz-adv-x="1699" d="M59 2l80 144q80 145 185.5 335.5t300.5 540.5q6 12 16 23.5t23.5 18.5t28 11t28.5 4h7t11 -1t11.5 -2t9.5 -1q18 -4 33.5 -14t25.5 -24.5t16.5 -32t6.5 -35.5v-965l116 203q115 203 268.5 475t434.5 770h-10l-578 -1024q-8 -12 -19.5 -22.5t-25.5 -17.5t-29.5 -11 t-29.5 -4h-7.5t-6.5 1t-15 3q-18 4 -34.5 14t-29 24.5t-19.5 32t-7 35.5v969l-563 -1022q-8 -12 -18.5 -23.5t-24 -18.5t-27.5 -11t-29 -4h-8t-11 1t-11 2t-8 1q-18 4 -34 14t-26 24.5t-16 32t-6 35.5v969h-9v-1450z" />
<glyph unicode="x" horiz-adv-x="821" d="M59 2l9 -2l221 565q6 18 18 33.5t28.5 26t35 16.5t39.5 6q20 0 38.5 -6t34 -16.5t27.5 -25.5t20 -34l222 -565l10 2l-238 602q-14 49 -20 94q-5 39 -5 73v11q1 39 5 72t12 59l207 533l-8 2l-185 -471q-8 -18 -20 -33.5t-27.5 -27t-34 -17.5t-38.5 -6t-39 6t-35.5 17.5 t-28.5 26.5t-18 34l-185 471l-8 -4l176 -455l2 -2v-2l19 -45q10 -29 16 -65.5t7 -84.5v-11q0 -44 -7 -94q-8 -56 -28 -116z" />
<glyph unicode="y" horiz-adv-x="776" d="M72 1444l290 -746q2 -8 5.5 -18t6.5 -22.5t5 -27t2 -28.5v-602l10 -2v604q0 14 3 28.5t5 26t6.5 24.5t4.5 17l295 748l-11 2l-186 -475q-8 -18 -20.5 -33.5t-28 -27t-33.5 -16.5t-39 -5q-20 0 -39.5 5t-35 16.5t-28 26.5t-18.5 34l-186 475z" />
<glyph unicode="z" horiz-adv-x="901" d="M82 0h676v10h-406q-20 0 -39.5 5t-37 14.5t-32 24t-24.5 30.5q-10 18 -17 35.5t-9.5 35t2 36t12.5 36.5l612 1223h-676v-10h408q20 0 38.5 -5t36 -14.5t32 -23t24.5 -31.5q10 -16 17.5 -34.5t9.5 -36t-2.5 -36t-12.5 -34.5z" />
<glyph unicode="&#x2000;" horiz-adv-x="727" />
<glyph unicode="&#x2001;" horiz-adv-x="1454" />
<glyph unicode="&#x2002;" horiz-adv-x="727" />
<glyph unicode="&#x2003;" horiz-adv-x="1454" />
<glyph unicode="&#x2004;" horiz-adv-x="484" />
<glyph unicode="&#x2005;" horiz-adv-x="363" />
<glyph unicode="&#x2006;" horiz-adv-x="242" />
<glyph unicode="&#x2007;" horiz-adv-x="242" />
<glyph unicode="&#x2008;" horiz-adv-x="181" />
<glyph unicode="&#x2009;" horiz-adv-x="290" />
<glyph unicode="&#x200a;" horiz-adv-x="80" />
<glyph unicode="&#x202f;" horiz-adv-x="290" />
<glyph unicode="&#x205f;" horiz-adv-x="363" />
<glyph unicode="&#xe000;" horiz-adv-x="1443" d="M0 0v1444h1444v-1444h-1444z" />
</font>
</defs>
</svg>
